PathFileType	4	(X/Y/Z)	Patient4_TMGait_0pt4_01_left_19.trc.trc
DataRate	CameraRate	NumFrames	NumMarkers	Units	OrigDataRate	OrigDataStartFrame	OrigNumFrames
608.695652173912	608.695652173912	4	33	mm	608.695652173912	1	       141
Frame#	Time	Sacral			L.Shoulder			Chest			R.Shoulder			Neck			R.ASIS			L.ASIS			R.Thigh.Superior			R.Thigh.Lateral			R.Thigh.Inferior			R.Patella			L.Thigh.Superior			L.Thigh.Lateral			L.Thigh.Inferior			L.Patella			L.Shank.Superior			L.Shank.Lateral			L.Shank.Inferior			R.Shank.Superior			R.Shank.Lateral			R.Shank.Inferior			R.Heel			R.Midfoot.Superior			R.Midfoot.Lateral			R.Toe			L.Heel			L.Midfoot.Lateral			L.Midfoot.Superior			L.Toe			L.Elbow			L.Wrist			R.Elbow			R.Wrist			
		X1	Y1	Z1	X2	Y2	Z2	X3	Y3	Z3	X4	Y4	Z4	X5	Y5	Z5	X6	Y6	Z6	X7	Y7	Z7	X8	Y8	Z8	X9	Y9	Z9	X10	Y10	Z10	X11	Y11	Z11	X12	Y12	Z12	X13	Y13	Z13	X14	Y14	Z14	X15	Y15	Z15	X16	Y16	Z16	X17	Y17	Z17	X18	Y18	Z18	X19	Y19	Z19	X20	Y20	Z20	X21	Y21	Z21	X22	Y22	Z22	X23	Y23	Z23	X24	Y24	Z24	X25	Y25	Z25	X26	Y26	Z26	X27	Y27	Z27	X28	Y28	Z28	X29	Y29	Z29	X30	Y30	Z30	X31	Y31	Z31	X32	Y32	Z32	X33	Y33	Z33	

1	23.980000000000	567.420911314309	1011.082892307328	467.528415076275	754.995171826812	1431.378739428718	270.940383627706	870.396677647598	1356.863940900991	420.936364133381	809.842256324862	1436.882053150229	602.090928023692	769.862446470178	1493.063075714255	427.103389834829	804.291484110077	939.265001299423	564.410293971092	765.964846715692	962.441804354016	293.824564308103	833.713551210430	735.588114666411	534.661754273039	749.170480427189	630.509593039685	596.432805332744	819.716815121926	575.703775195455	512.107942614222	814.438144683694	490.092415128983	516.432841212871	852.566513798828	786.170206322763	318.859794910082	812.852686096172	659.571537337624	239.057655070386	920.515852945194	602.439259792340	298.503811676625	940.106870722689	517.533597667307	289.074801482346	885.466354982497	445.214233900890	278.703749545518	754.483583476843	374.427585306482	234.847702495010	776.851020909297	242.168557747247	280.792976226602	785.203653620798	401.915971920570	524.876612589844	712.847086638546	299.203352684624	586.804883454096	751.043442005730	204.415114446402	521.768915853875	613.479130830946	40.489866678512	489.946551404675	784.196426298860	96.525213900415	529.637684290759	695.162439200532	35.876200212733	566.259263284830	903.557535948613	43.251808788581	559.972869491125	611.157145363634	134.941217487275	328.051168432701	668.319461833493	108.412798744467	239.553469036090	771.451178080346	136.002648602675	253.050213705680	866.322676778311	44.329731229854	208.179872618900	664.880124800356	1104.493232804124	129.671761131029	746.337751284248	864.028912693796	54.402838349335	834.338720025547	1097.463964227706	739.582843735448	1034.842088712179	940.967521714661	692.125909211015	
2	23.981642857143	567.280034015763	1011.165059771716	467.736498987817	754.886680688729	1431.328570471897	270.963926124542	870.375620065826	1356.778025700997	420.890462269466	810.063872251812	1436.873068614356	602.079508736321	769.988441777021	1493.053176415397	427.010028134450	804.196265324614	939.243624434079	564.436840742879	765.677107751382	962.466719016576	293.877886409453	833.440179501359	735.492584477580	534.615530457866	748.865776832414	630.466433691215	596.457856053799	819.301012276590	575.647165878082	512.115210974568	813.942023630230	490.048107171883	516.437862410148	852.386875000785	786.365193792950	318.950548722641	812.792552309637	659.691200695885	239.204150766120	920.513961436888	602.698284630239	298.692763110238	940.215755524314	517.871713887138	289.306608000217	885.907996458614	445.444174715966	278.834845844465	755.353149996972	373.928989066540	235.057377122449	778.574138098188	241.722640096661	280.900145748857	784.687336764672	401.874436428548	524.935948161797	712.381490787323	299.272810450512	586.885023270989	750.449263815637	204.441234105504	521.805332883791	612.834754883364	40.471212093579	489.974009336454	783.538638610266	96.512667434285	529.646747448711	694.552284555922	35.890877015690	566.333942837725	902.929835525946	43.251522812255	559.977117944352	613.596875474827	133.328291932567	328.219152230388	670.906003448594	107.308395849881	239.655948482723	773.849250228747	135.606137270500	253.138487358572	869.374624035966	44.665205231097	208.170382898437	664.449326293435	1104.307716698899	130.126628888024	744.761492541172	863.417814108055	55.073122867113	834.773115512455	1097.403273042903	739.438247350803	1035.568379807004	941.475834606473	691.506175382767	
3	23.983285714286	567.139290219804	1011.246830756562	467.945991967451	754.776040161333	1431.278814549544	270.988377284532	870.362736489123	1356.695346990494	420.830210994181	810.287876544316	1436.863290203399	602.063159577908	770.104508244213	1493.040660283250	426.933484694759	804.102475456179	939.215780222640	564.460357375631	765.389549941822	962.492937000726	293.925138116913	833.162827945527	735.403043803713	534.568904613357	748.551379976707	630.425988868946	596.486281700694	818.870988777642	575.588067447427	512.118407698991	813.437247203006	490.003804861036	516.442623952113	852.198170617972	786.548283901114	319.047401699551	812.720576264204	659.803099492006	239.356618576966	920.494179668697	602.950924668858	298.892551371012	940.316724477686	518.217860367634	289.537332482949	886.358654649096	445.676719939119	278.976733353227	756.232174127006	373.423021280872	235.266706679543	780.313795097916	241.283248111914	281.007703053476	784.162563917636	401.836753419331	524.982618652741	711.887561657094	299.318462896223	586.953028519691	749.848927599431	204.449795289916	521.832147667106	612.184743266957	40.458178247059	489.998139932431	782.877295755433	96.503608136702	529.656328989480	693.923618111677	35.900313883536	566.388482165960	902.286064064372	43.248412978667	559.983800279871	616.069502976441	131.717941449247	328.384173752996	673.525629793676	106.200792890304	239.760429444890	776.267084609563	135.214800707806	253.229097379053	872.449303924243	45.022055769025	208.160090433181	664.012065446702	1104.125004492344	130.576920627769	743.185762633875	862.820825838151	55.741831419275	835.213577486100	1097.346716647897	739.289985084691	1036.291403151322	941.979222195617	690.879495205510	
4	23.984928571429	566.998811608315	1011.328369502464	468.156370650144	754.663658629916	1431.229545667244	271.013381136408	870.357035944167	1356.615477217189	420.757314824488	810.513985461061	1436.852767976704	602.042281302296	770.211478755385	1493.025790373654	426.872216177846	804.010249815956	939.182389120436	564.480796187428	765.102366844516	962.520202980184	293.966801758766	832.881598119902	735.318674385715	534.521754624965	748.228237160412	630.388248746358	596.517947904513	818.428359644672	575.526732503856	512.117931833478	812.924616858809	489.959554650172	516.447192938469	852.001423338033	786.720963601421	319.149098667882	812.637800282583	659.907787205736	239.514210436720	920.457877878547	603.197289664844	299.101966178894	940.409939398582	518.570432017126	289.767139058892	886.816537824466	445.911151054234	279.127797043958	757.119984434276	372.910189615073	235.475117613710	782.068318639527	240.850324526520	281.115909994823	783.630175928104	401.802388287607	525.018340850709	711.368407847302	299.343055930166	587.010051027382	749.243192155060	204.443031448188	521.850501613124	611.529834371662	40.449889869908	490.019300649170	782.212921483387	96.497486981845	529.666486596202	693.278803242075	35.905163922793	566.425469153558	901.628562066161	43.242998722164	559.992451177646	618.571933290688	130.111466108252	328.545947342515	676.175277708310	105.091989238011	239.866359933580	778.702626542583	134.828941589618	253.321990034999	875.543380099435	45.398871788817	208.149774598396	663.569246243992	1103.945495867225	131.022311569387	741.611697742153	862.237819555675	56.408492776946	835.659113850469	1097.293659239948	739.137890160919	1037.011037135894	942.478029169290	690.246063633563	
